<?xml version="1.0" ?><svg enable-background="new 0 0 52 52" id="Layer_1" version="1.1" viewBox="0 0 52 52" xml:space="preserve" xmlns="http://www.w3.org/2000/svg" xmlns:xlink="http://www.w3.org/1999/xlink"><g><g><g><path d="M40,40.5H12v-28h28V40.5z M14,38.5h24v-24H14V38.5z" fill="#0096E6"/></g></g><g><g><path d="M36,36.5H16v-20h20V36.5z M18,34.5h16v-16H18V34.5z" fill="#0096E6"/></g></g><g><g><g><g><rect fill="#0096E6" height="2" width="7" x="42" y="12.5"/></g></g><g><g><rect fill="#0096E6" height="2" width="7" x="42" y="17.5"/></g></g><g><g><rect fill="#0096E6" height="2" width="7" x="42" y="22.5"/></g></g><g><g><rect fill="#0096E6" height="2" width="7" x="42" y="27.5"/></g></g><g><g><rect fill="#0096E6" height="2" width="7" x="42" y="32.5"/></g></g><g><g><rect fill="#0096E6" height="2" width="7" x="42" y="37.5"/></g></g></g><g><g><g><rect fill="#0096E6" height="2" width="7" x="3" y="12.5"/></g></g><g><g><rect fill="#0096E6" height="2" width="7" x="3" y="17.5"/></g></g><g><g><rect fill="#0096E6" height="2" width="7" x="3" y="22.5"/></g></g><g><g><rect fill="#0096E6" height="2" width="7" x="3" y="27.5"/></g></g><g><g><rect fill="#0096E6" height="2" width="7" x="3" y="32.5"/></g></g><g><g><rect fill="#0096E6" height="2" width="7" x="3" y="37.5"/></g></g></g></g><g><g><g><g><rect fill="#0096E6" height="7" width="2" x="37.5" y="3"/></g></g><g><g><rect fill="#0096E6" height="7" width="2" x="32.5" y="3"/></g></g><g><g><rect fill="#0096E6" height="7" width="2" x="27.5" y="3"/></g></g><g><g><rect fill="#0096E6" height="7" width="2" x="22.5" y="3"/></g></g><g><g><rect fill="#0096E6" height="7" width="2" x="17.5" y="3"/></g></g><g><g><rect fill="#0096E6" height="7" width="2" x="12.5" y="3"/></g></g></g><g><g><g><rect fill="#0096E6" height="7" width="2" x="37.5" y="42"/></g></g><g><g><rect fill="#0096E6" height="7" width="2" x="32.5" y="42"/></g></g><g><g><rect fill="#0096E6" height="7" width="2" x="27.5" y="42"/></g></g><g><g><rect fill="#0096E6" height="7" width="2" x="22.5" y="42"/></g></g><g><g><rect fill="#0096E6" height="7" width="2" x="17.5" y="42"/></g></g><g><g><rect fill="#0096E6" height="7" width="2" x="12.5" y="42"/></g></g></g></g></g></svg>