<?xml version="1.0" encoding="UTF-8" standalone="no"?>
<svg
   xmlns:dc="http://purl.org/dc/elements/1.1/"
   xmlns:cc="http://creativecommons.org/ns#"
   xmlns:rdf="http://www.w3.org/1999/02/22-rdf-syntax-ns#"
   xmlns:svg="http://www.w3.org/2000/svg"
   xmlns="http://www.w3.org/2000/svg"
   xmlns:sodipodi="http://sodipodi.sourceforge.net/DTD/sodipodi-0.dtd"
   xmlns:inkscape="http://www.inkscape.org/namespaces/inkscape"
   sodipodi:docname="strongShield.svg"
   inkscape:version="1.0 (4035a4f, 2020-05-01)"
   id="svg8"
   version="1.1"
   viewBox="0 0 113.31142 114.36976"
   height="432.26364"
   width="428.26367">
  <defs
     id="defs2" />
  <sodipodi:namedview
     inkscape:window-maximized="0"
     inkscape:window-y="26"
     inkscape:window-x="0"
     inkscape:window-height="1174"
     inkscape:window-width="1920"
     units="px"
     showgrid="false"
     inkscape:document-rotation="0"
     inkscape:current-layer="layer1"
     inkscape:document-units="mm"
     inkscape:cy="152.17256"
     inkscape:cx="147.30112"
     inkscape:zoom="1.5819383"
     inkscape:pageshadow="2"
     inkscape:pageopacity="0.0"
     borderopacity="1.0"
     bordercolor="#666666"
     pagecolor="#ffffff"
     id="base" />
  <metadata
     id="metadata5">
    <rdf:RDF>
      <cc:Work
         rdf:about="">
        <dc:format>image/svg+xml</dc:format>
        <dc:type
           rdf:resource="http://purl.org/dc/dcmitype/StillImage" />
        <dc:title />
      </cc:Work>
    </rdf:RDF>
  </metadata>
  <g
     transform="translate(-11.077619,-10.548456)"
     id="layer1"
     inkscape:groupmode="layer"
     inkscape:label="Layer 1">
    <path
       d="M 67.733331,36.63549 C 58.708966,42.068272 51.264179,50.26277 37.47875,47.371784 37.550015,98.352121 45.706098,86.771777 67.733331,98.831176 89.760565,86.771777 97.916651,98.352121 97.987916,47.371784 84.202484,50.26277 76.757697,42.068272 67.733331,36.63549 Z"
       style="fill:#00e100;fill-opacity:1;stroke:none;stroke-width:8.90924;stroke-linejoin:round"
       id="rect833" />
    <g
       id="g931"
       transform="translate(36.512503,-16.668749)" />
    <path
       id="path925-4"
       style="fill:#ff0000;fill-opacity:0;stroke:#27e5e7;stroke-width:2;stroke-linejoin:round;stroke-miterlimit:4;stroke-dasharray:none;stroke-opacity:1;paint-order:normal"
       d="m 123.38905,67.733331 c 0,7.757513 -1.55737,15.147824 -4.3737,21.86969 -2.81633,6.72187 -6.89163,12.775289 -11.92748,17.859019 -5.03585,5.08373 -11.032266,9.19777 -17.690826,12.04088 -6.65856,2.84311 -13.979262,4.41529 -21.663713,4.41529 -7.684451,0 -15.005158,-1.57218 -21.663716,-4.41529 -6.658558,-2.84311 -12.654966,-6.95715 -17.690817,-12.04088 -5.035852,-5.08373 -9.111147,-11.137149 -11.927479,-17.859019 -2.816332,-6.721866 -4.373701,-14.112177 -4.3737,-21.869689 10e-7,-7.757513 1.55737,-15.147824 4.373703,-21.869689 2.816332,-6.721866 6.891627,-12.775286 11.927479,-17.859018 5.035851,-5.083731 11.032257,-9.197774 17.690815,-12.040883 1.099872,-0.46963 2.21781,-0.904582 3.352471,-1.303499 5.734505,-2.016103 11.896124,-3.111787 18.311244,-3.111787 7.68445,0 15.005153,1.572177 21.663713,4.415286 6.65856,2.84311 12.654976,6.957152 17.690826,12.040884 5.03585,5.083731 9.11115,11.137151 11.92748,17.859017 2.81633,6.721866 4.3737,14.112177 4.3737,21.869689 m -104.560052,10e-7 c 0,-7.138624 1.40232,-13.939346 3.93829,-20.12495 2.53594,-6.185603 6.205531,-11.756088 10.740048,-16.434245 4.534517,-4.678157 9.933961,-8.463986 15.929641,-11.080275 L 47.499745,15.21999 v 0 M 18.828998,67.733333 c 0,7.138627 1.40233,13.939348 3.93829,20.124949 2.53595,6.185603 6.205541,11.756083 10.740058,16.434238 4.534507,4.67816 9.933961,8.46399 15.929631,11.08028 l -2.104485,4.21283 v 0 M 116.73692,67.733335 c 0,7.138627 -1.40233,13.939347 -3.93829,20.124949 -2.53595,6.185603 -6.20554,11.756088 -10.74006,16.434236 -4.534508,4.67816 -9.933958,8.46399 -15.929628,11.08028 l 1.845939,4.54734 M 116.73692,67.733335 c 0,-7.138627 -1.40232,-13.939347 -3.93829,-20.12495 C 110.26269,41.422782 106.5931,35.852297 102.05858,31.174139 97.524062,26.495982 92.124622,22.710153 86.128942,20.093864 l 1.678687,-4.873875"
       sodipodi:nodetypes="csssssssssssssssscccsccccssccccssccccscc" />
    <path
       style="fill:#ffffff;fill-opacity:0;stroke:#720000;stroke-width:0;stroke-linejoin:round;stroke-opacity:0"
       d="M 167.87926,444.30729 C 121.00023,421.71178 83.832763,381.90045 64.704954,333.7938 c -10.14357,-25.51119 -14.754671,-49.87907 -14.7423,-77.90734 0.01495,-33.86485 6.988711,-63.49331 22.020661,-93.55611 10.292039,-20.58333 22.121106,-37.01815 38.485055,-53.46954 18.12299,-18.219836 35.42269,-30.549823 58.04917,-41.373288 4.3351,-2.073709 8.16721,-3.770379 8.51581,-3.770379 0.3486,0 0.91425,0.782268 1.25701,1.738373 0.34276,0.956106 1.21712,3.224943 1.94302,5.04186 l 1.31983,3.303485 -8.19979,4.169522 c -36.4235,18.521039 -68.34283,51.798617 -86.595323,90.280187 -12.191721,25.7037 -18.548344,52.45066 -19.400145,81.6306 -1.483218,50.81021 14.996351,98.71288 47.081958,136.85743 6.22656,7.40237 20.11675,21.02207 27.31919,26.78718 7.95337,6.36619 22.13892,15.6164 31.20649,20.34932 4.39227,2.2926 7.98593,4.28297 7.98593,4.42304 0,0.60392 -4.73406,9.75586 -5.03767,9.73887 -0.18452,-0.0103 -3.80008,-1.6887 -8.03459,-3.72972 z"
       id="path4052"
       transform="scale(0.26458333)" />
    <path
       style="fill:#ffffff;fill-opacity:0;stroke:#720000;stroke-width:0;stroke-linejoin:round;stroke-opacity:0"
       d="M 167.87926,444.30729 C 121.00023,421.71178 83.832763,381.90045 64.704954,333.7938 c -10.14357,-25.51119 -14.754671,-49.87907 -14.7423,-77.90734 0.01495,-33.86485 6.988711,-63.49331 22.020661,-93.55611 10.292039,-20.58333 22.121106,-37.01815 38.485055,-53.46954 18.12299,-18.219836 35.42269,-30.549823 58.04917,-41.373288 4.3351,-2.073709 8.16721,-3.770379 8.51581,-3.770379 0.3486,0 0.91425,0.782268 1.25701,1.738373 0.34276,0.956106 1.21712,3.224943 1.94302,5.04186 l 1.31983,3.303485 -8.19979,4.169522 c -36.4235,18.521039 -68.34283,51.798617 -86.595323,90.280187 -12.191721,25.7037 -18.548344,52.45066 -19.400145,81.6306 -1.483218,50.81021 14.996351,98.71288 47.081958,136.85743 6.22656,7.40237 20.11675,21.02207 27.31919,26.78718 7.95337,6.36619 22.13892,15.6164 31.20649,20.34932 4.39227,2.2926 7.98593,4.28297 7.98593,4.42304 0,0.60392 -4.73406,9.75586 -5.03767,9.73887 -0.18452,-0.0103 -3.80008,-1.6887 -8.03459,-3.72972 z"
       id="path4054"
       transform="scale(0.26458333)" />
    <path
       style="fill:#ffffff;fill-opacity:0;stroke:#720000;stroke-width:0;stroke-linejoin:round;stroke-opacity:0"
       d="M 167.17606,443.96237 C 120.91687,421.60624 83.718856,381.61398 64.704954,333.7938 c -10.14357,-25.51119 -14.754671,-49.87907 -14.7423,-77.90734 0.01495,-33.86485 6.988711,-63.49331 22.020661,-93.55611 10.292039,-20.58333 22.121106,-37.01815 38.485055,-53.46954 17.83859,-17.933913 34.12121,-29.65189 56.26009,-40.488222 8.97107,-4.391071 10.793,-4.79799 11.64571,-2.601004 0.30362,0.782269 1.14311,2.908875 1.86554,4.725792 l 1.3135,3.303485 -8.19979,4.169522 c -36.4235,18.521039 -68.34283,51.798617 -86.595323,90.280187 -12.191721,25.7037 -18.548344,52.45066 -19.400145,81.6306 -1.483218,50.81021 14.996351,98.71288 47.081958,136.85743 6.22656,7.40237 20.11675,21.02207 27.31919,26.78718 7.95337,6.36619 22.13892,15.6164 31.20649,20.34932 4.39227,2.2926 7.98593,4.29477 7.98593,4.44928 0,0.15451 -0.99919,2.26505 -2.22042,4.6901 -1.47236,2.92373 -2.59044,4.40722 -3.31871,4.40337 -0.60407,-0.003 -4.31041,-1.55816 -8.23633,-3.45548 z"
       id="path4056"
       transform="scale(0.26458333)" />
    <path
       style="fill:#ffffff;fill-opacity:0;stroke:#720000;stroke-width:0;stroke-linejoin:round;stroke-opacity:0"
       d="M 167.17606,443.96237 C 120.91687,421.60624 83.718856,381.61398 64.704954,333.7938 c -10.14357,-25.51119 -14.754671,-49.87907 -14.7423,-77.90734 0.01495,-33.86485 6.988711,-63.49331 22.020661,-93.55611 10.292039,-20.58333 22.121106,-37.01815 38.485055,-53.46954 17.83859,-17.933913 34.12121,-29.65189 56.26009,-40.488222 8.97107,-4.391071 10.793,-4.79799 11.64571,-2.601004 0.30362,0.782269 1.14311,2.908875 1.86554,4.725792 l 1.3135,3.303485 -8.19979,4.169522 c -36.4235,18.521039 -68.34283,51.798617 -86.595323,90.280187 -12.191721,25.7037 -18.548344,52.45066 -19.400145,81.6306 -1.483218,50.81021 14.996351,98.71288 47.081958,136.85743 6.22656,7.40237 20.11675,21.02207 27.31919,26.78718 7.95337,6.36619 22.13892,15.6164 31.20649,20.34932 4.39227,2.2926 7.98593,4.29477 7.98593,4.44928 0,0.15451 -0.99919,2.26505 -2.22042,4.6901 -1.47236,2.92373 -2.59044,4.40722 -3.31871,4.40337 -0.60407,-0.003 -4.31041,-1.55816 -8.23633,-3.45548 z"
       id="path4058"
       transform="scale(0.26458333)" />
    <path
       style="fill:#ffffff;fill-opacity:0;stroke:#720000;stroke-width:0;stroke-linejoin:round;stroke-opacity:0"
       d="M 167.17606,443.96237 C 120.91687,421.60624 83.718856,381.61398 64.704954,333.7938 c -10.14357,-25.51119 -14.754671,-49.87907 -14.7423,-77.90734 0.01495,-33.86485 6.988711,-63.49331 22.020661,-93.55611 10.292039,-20.58333 22.121106,-37.01815 38.485055,-53.46954 17.83859,-17.933913 34.12121,-29.65189 56.26009,-40.488222 8.97107,-4.391071 10.793,-4.79799 11.64571,-2.601004 0.30362,0.782269 1.14311,2.908875 1.86554,4.725792 l 1.3135,3.303485 -8.19979,4.169522 c -36.4235,18.521039 -68.34283,51.798617 -86.595323,90.280187 -12.191721,25.7037 -18.548344,52.45066 -19.400145,81.6306 -1.483218,50.81021 14.996351,98.71288 47.081958,136.85743 6.22656,7.40237 20.11675,21.02207 27.31919,26.78718 7.95337,6.36619 22.13892,15.6164 31.20649,20.34932 4.39227,2.2926 7.98593,4.29477 7.98593,4.44928 0,0.15451 -0.99919,2.26505 -2.22042,4.6901 -1.47236,2.92373 -2.59044,4.40722 -3.31871,4.40337 -0.60407,-0.003 -4.31041,-1.55816 -8.23633,-3.45548 z"
       id="path4060"
       transform="scale(0.26458333)" />
    <path
       style="fill:#ffffff;fill-opacity:0;stroke:#720000;stroke-width:0;stroke-linejoin:round;stroke-opacity:0"
       d="M 167.17606,443.96237 C 120.91687,421.60624 83.718856,381.61398 64.704954,333.7938 c -10.14357,-25.51119 -14.754671,-49.87907 -14.7423,-77.90734 0.01495,-33.86485 6.988711,-63.49331 22.020661,-93.55611 10.292039,-20.58333 22.121106,-37.01815 38.485055,-53.46954 17.83859,-17.933913 34.12121,-29.65189 56.26009,-40.488222 8.97107,-4.391071 10.793,-4.79799 11.64571,-2.601004 0.30362,0.782269 1.14311,2.908875 1.86554,4.725792 l 1.3135,3.303485 -8.19979,4.169522 c -36.4235,18.521039 -68.34283,51.798617 -86.595323,90.280187 -12.191721,25.7037 -18.548344,52.45066 -19.400145,81.6306 -1.483218,50.81021 14.996351,98.71288 47.081958,136.85743 6.22656,7.40237 20.11675,21.02207 27.31919,26.78718 7.95337,6.36619 22.13892,15.6164 31.20649,20.34932 4.39227,2.2926 7.98593,4.29477 7.98593,4.44928 0,0.15451 -0.99919,2.26505 -2.22042,4.6901 -1.47236,2.92373 -2.59044,4.40722 -3.31871,4.40337 -0.60407,-0.003 -4.31041,-1.55816 -8.23633,-3.45548 z"
       id="path4062"
       transform="scale(0.26458333)" />
    <path
       style="fill:#ffffff;fill-opacity:0;stroke:#720000;stroke-width:0;stroke-linejoin:round;stroke-opacity:0"
       d="M 167.17606,443.96237 C 120.91687,421.60624 83.718856,381.61398 64.704954,333.7938 c -10.14357,-25.51119 -14.754671,-49.87907 -14.7423,-77.90734 0.01495,-33.86485 6.988711,-63.49331 22.020661,-93.55611 10.292039,-20.58333 22.121106,-37.01815 38.485055,-53.46954 17.83859,-17.933913 34.12121,-29.65189 56.26009,-40.488222 8.97107,-4.391071 10.793,-4.79799 11.64571,-2.601004 0.30362,0.782269 1.14311,2.908875 1.86554,4.725792 l 1.3135,3.303485 -8.19979,4.169522 c -36.4235,18.521039 -68.34283,51.798617 -86.595323,90.280187 -12.191721,25.7037 -18.548344,52.45066 -19.400145,81.6306 -1.483218,50.81021 14.996351,98.71288 47.081958,136.85743 6.22656,7.40237 20.11675,21.02207 27.31919,26.78718 7.95337,6.36619 22.13892,15.6164 31.20649,20.34932 4.39227,2.2926 7.98593,4.29477 7.98593,4.44928 0,0.15451 -0.99919,2.26505 -2.22042,4.6901 -1.47236,2.92373 -2.59044,4.40722 -3.31871,4.40337 -0.60407,-0.003 -4.31041,-1.55816 -8.23633,-3.45548 z"
       id="path4064"
       transform="scale(0.26458333)" />
    <path
       style="fill:#ffffff;fill-opacity:0;stroke:#720000;stroke-width:0;stroke-linejoin:round;stroke-opacity:0"
       d="m 333.9879,446.00134 c -0.29775,-0.78226 -1.00186,-2.52377 -1.56469,-3.87001 -0.56284,-1.34624 -1.02334,-2.81675 -1.02334,-3.26779 0,-0.45105 3.62688,-2.71296 8.05974,-5.02647 16.53462,-8.62944 31.07747,-19.28281 45.27367,-33.16525 35.01239,-34.23856 55.54209,-78.15042 59.85842,-128.03375 0.9315,-10.76532 0.42503,-32.90264 -0.99068,-43.30132 -5.09669,-37.43617 -19.42398,-71.16743 -42.71873,-100.57424 -6.68057,-8.43342 -21.77238,-23.5254 -30.28999,-30.29033 -9.14324,-7.261824 -22.20775,-15.742113 -31.44604,-20.411893 -8.69076,-4.393015 -8.62438,-4.28915 -6.54054,-10.234261 1.46865,-4.190011 2.61935,-4.268577 10.30094,-0.703309 35.78666,16.609724 68.55478,46.179183 89.10734,80.409143 15.81166,26.33408 24.87059,52.99149 29.08848,85.59771 1.0449,8.07755 1.05613,37.06473 0.0176,45.51379 -4.3433,35.33657 -15.12834,64.95661 -33.94992,93.24005 -8.18416,12.29844 -15.50089,21.21594 -26.22006,31.95653 -10.82729,10.84895 -19.59071,18.00978 -32.56277,26.60794 -10.11475,6.70427 -29.64055,16.97577 -32.2704,16.97577 -1.06468,0 -1.76604,-0.46854 -2.12906,-1.42231 z"
       id="path4066"
       transform="scale(0.26458333)" />
    <path
       style="fill:#ffffff;fill-opacity:0;stroke:#720000;stroke-width:0;stroke-linejoin:round;stroke-opacity:0"
       d="m 247.25385,368.72816 c -10.41573,-5.27411 -19.92982,-9.24586 -37.9614,-15.84734 -8.10881,-2.96869 -17.36724,-6.5484 -20.57431,-7.95491 -35.2036,-15.4391 -44.38608,-44.43736 -46.68767,-147.43966 l -0.40801,-18.25958 1.56205,0.39205 c 7.46028,1.87241 25.41342,2.24641 34.3655,0.7159 12.45275,-2.12901 25.4341,-7.33585 39.43326,-15.81675 3.65059,-2.21157 13.60243,-8.7288 22.11522,-14.48273 8.51278,-5.75393 16.10498,-10.46169 16.87154,-10.46169 0.76655,0 9.58914,5.49391 19.60575,12.20868 20.55161,13.77706 27.90206,18.11182 37.58965,22.16765 13.00448,5.44449 22.39051,7.34472 36.25032,7.33901 8.39324,-0.003 14.34514,-0.50451 19.22513,-1.6184 l 1.52532,-0.34817 -0.42015,22.95282 c -1.50779,82.36971 -9.2948,116.05996 -30.83284,133.39738 -6.27356,5.05 -17.82273,10.59384 -35.04745,16.82349 -17.85821,6.45877 -26.10514,9.84929 -38.06954,15.65134 -5.31279,2.5764 -9.86417,4.66953 -10.11417,4.6514 -0.25001,-0.0181 -4.0427,-1.84985 -8.4282,-4.07049 z"
       id="path4068"
       transform="scale(0.26458333)" />
    <path
       style="fill:#ffffff;fill-opacity:0;stroke:#720000;stroke-width:0;stroke-linejoin:round;stroke-opacity:0"
       d="m 242.46382,463.82853 c -16.83551,-1.22773 -32.73127,-4.26195 -48.39548,-9.23783 -7.49576,-2.3811 -9.324,-3.18672 -9.324,-4.10865 0,-0.63074 1.47714,-4.11692 3.28253,-7.74707 2.81132,-5.65278 3.18421,-6.8161 2.59751,-8.10376 -0.48472,-1.06383 -3.52422,-2.92095 -10.39407,-6.3507 C 129.7303,403.06854 92.793128,355.55795 80.112711,299.50384 74.732947,275.72246 73.928158,247.37352 77.959345,223.65091 88.306243,162.76177 125.48644,111.57727 179.20236,84.273643 c 6.8739,-3.49398 10.58071,-5.745412 11.181,-6.791079 0.82464,-1.436478 0.6824,-2.101366 -1.74116,-8.138946 -1.45154,-3.616073 -2.63791,-7.200469 -2.63638,-7.965324 0.003,-1.212863 0.90451,-1.682153 7.05627,-3.670883 20.32558,-6.570819 40.78147,-9.774793 62.48147,-9.786371 17.88294,-0.0095 32.96863,1.753449 49.29365,5.760705 7.23883,1.776895 20.74598,5.904411 21.37262,6.531047 0.14529,0.14529 -0.92156,3.822214 -2.37078,8.17094 -2.09634,6.290566 -2.49595,8.166488 -1.95497,9.177331 0.37942,0.708961 5.21725,3.583629 10.94515,6.503677 55.32043,28.20204 93.05531,81.22938 102.25267,143.69168 1.95334,13.26576 2.39306,34.97273 0.9796,48.35839 -4.76409,45.11652 -23.79377,85.34799 -55.3369,116.99011 -14.62401,14.6699 -30.56751,26.22226 -48.6155,35.22587 -6.45344,3.21943 -9.934,5.317 -10.35467,6.24026 -0.5075,1.11385 -0.0509,2.84696 2.29342,8.70521 1.60989,4.02297 2.92707,7.57104 2.92707,7.8846 0,1.22002 -22.33829,7.62928 -34.13534,9.79404 -14.54245,2.66856 -36.22627,3.90549 -50.37576,2.87363 z M 278.93259,362.8834 c 3.99826,-1.73468 14.80779,-5.93093 24.02117,-9.32499 19.07412,-7.02661 25.15614,-9.69765 31.65583,-13.90228 20.75786,-13.42819 29.68582,-37.01872 33.73655,-89.14282 1.80513,-23.22801 3.00414,-71.76605 1.77206,-71.73578 -0.26076,0.006 -2.89202,0.45077 -5.84726,0.98748 -7.43352,1.35002 -21.44304,1.3291 -29.39432,-0.0439 -12.31977,-2.12733 -26.17226,-7.66075 -39.19243,-15.65555 -3.47674,-2.13485 -13.64892,-8.80338 -22.60483,-14.81897 -8.95591,-6.01559 -16.6264,-10.93744 -17.04555,-10.93744 -0.41914,0 -9.44809,5.78716 -20.06434,12.86036 -25.06814,16.70195 -32.78004,21.01245 -44.79742,25.03918 -14.335,4.8033 -30.95136,5.97118 -45.55435,3.20178 -1.86946,-0.35454 -3.66821,-0.64462 -3.99719,-0.64462 -0.65365,0 -0.2256,26.46576 0.82302,50.88694 2.61631,60.93036 10.77924,90.52611 29.21044,105.90605 6.29463,5.25256 18.79159,11.27628 37.4276,18.04066 18.47127,6.70456 27.78722,10.58772 38.56029,16.07302 l 8.21777,4.18422 7.9017,-3.9097 c 4.34593,-2.15033 11.173,-5.32898 15.17126,-7.06367 z"
       id="path4070"
       transform="scale(0.26458333)" />
    <path
       style="fill:#ff0000;fill-opacity:0;stroke:#720000;stroke-width:0;stroke-linejoin:round;stroke-opacity:0"
       d="M 167.17606,443.96237 C 120.91687,421.60624 83.718856,381.61398 64.704954,333.7938 c -10.14357,-25.51119 -14.754671,-49.87907 -14.7423,-77.90734 0.01495,-33.86485 6.988711,-63.49331 22.020661,-93.55611 10.292039,-20.58333 22.121106,-37.01815 38.485055,-53.46954 17.83859,-17.933913 34.12121,-29.65189 56.26009,-40.488222 8.97107,-4.391071 10.793,-4.79799 11.64571,-2.601004 0.30362,0.782269 1.14311,2.908875 1.86554,4.725792 l 1.3135,3.303485 -8.19979,4.169522 c -36.4235,18.521039 -68.34283,51.798617 -86.595323,90.280187 -12.191721,25.7037 -18.548344,52.45066 -19.400145,81.6306 -1.483218,50.81021 14.996351,98.71288 47.081958,136.85743 6.22656,7.40237 20.11675,21.02207 27.31919,26.78718 7.95337,6.36619 22.13892,15.6164 31.20649,20.34932 4.39227,2.2926 7.98593,4.29477 7.98593,4.44928 0,0.15451 -0.99919,2.26505 -2.22042,4.6901 -1.47236,2.92373 -2.59044,4.40722 -3.31871,4.40337 -0.60407,-0.003 -4.31041,-1.55816 -8.23633,-3.45548 z"
       id="path4072"
       transform="scale(0.26458333)" />
    <path
       style="fill:#ff0000;fill-opacity:0;stroke:#720000;stroke-width:0;stroke-linejoin:round;stroke-opacity:0"
       d="M 167.17606,443.96237 C 120.91687,421.60624 83.718856,381.61398 64.704954,333.7938 c -10.14357,-25.51119 -14.754671,-49.87907 -14.7423,-77.90734 0.01495,-33.86485 6.988711,-63.49331 22.020661,-93.55611 10.292039,-20.58333 22.121106,-37.01815 38.485055,-53.46954 17.83859,-17.933913 34.12121,-29.65189 56.26009,-40.488222 8.97107,-4.391071 10.793,-4.79799 11.64571,-2.601004 0.30362,0.782269 1.14311,2.908875 1.86554,4.725792 l 1.3135,3.303485 -8.19979,4.169522 c -36.4235,18.521039 -68.34283,51.798617 -86.595323,90.280187 -12.191721,25.7037 -18.548344,52.45066 -19.400145,81.6306 -1.483218,50.81021 14.996351,98.71288 47.081958,136.85743 6.22656,7.40237 20.11675,21.02207 27.31919,26.78718 7.95337,6.36619 22.13892,15.6164 31.20649,20.34932 4.39227,2.2926 7.98593,4.29477 7.98593,4.44928 0,0.15451 -0.99919,2.26505 -2.22042,4.6901 -1.47236,2.92373 -2.59044,4.40722 -3.31871,4.40337 -0.60407,-0.003 -4.31041,-1.55816 -8.23633,-3.45548 z"
       id="path4074"
       transform="scale(0.26458333)" />
    <path
       style="fill:none;stroke:#000000;stroke-width:0.264583px;stroke-linecap:butt;stroke-linejoin:miter;stroke-opacity:1"
       d="M 49.436977,20.093863 Z"
       id="path4093" />
  </g>
</svg>
