<?xml version="1.0" encoding="UTF-8" standalone="no"?>
<svg
   xmlns:dc="http://purl.org/dc/elements/1.1/"
   xmlns:cc="http://creativecommons.org/ns#"
   xmlns:rdf="http://www.w3.org/1999/02/22-rdf-syntax-ns#"
   xmlns:svg="http://www.w3.org/2000/svg"
   xmlns="http://www.w3.org/2000/svg"
   xmlns:xlink="http://www.w3.org/1999/xlink"
   xmlns:sodipodi="http://sodipodi.sourceforge.net/DTD/sodipodi-0.dtd"
   xmlns:inkscape="http://www.inkscape.org/namespaces/inkscape"
   height="128.09018"
   width="61.565483"
   inkscape:version="1.0 (4035a4f, 2020-05-01)"
   x="0"
   y="0"
   version="1.0"
   sodipodi:version="0.32"
   viewBox="0 0 61.565483 128.09018"
   sodipodi:docname="Anonymous-Time-icon.svg"
   id="svg1468">
  <defs
     id="defs1542">
    <linearGradient
       inkscape:collect="always"
       id="linearGradient2154">
      <stop
         style="stop-color:#067d00;stop-opacity:1;"
         offset="0"
         id="stop2150" />
      <stop
         style="stop-color:#06b000;stop-opacity:0.94117647"
         offset="1"
         id="stop2152" />
    </linearGradient>
    <linearGradient
       inkscape:collect="always"
       id="linearGradient2148">
      <stop
         style="stop-color:#067d00;stop-opacity:1;"
         offset="0"
         id="stop2144" />
      <stop
         style="stop-color:#06bd00;stop-opacity:0.90196073"
         offset="1"
         id="stop2146" />
    </linearGradient>
    <linearGradient
       id="linearGradient2136"
       inkscape:collect="always">
      <stop
         id="stop2132"
         offset="0"
         style="stop-color:#067d00;stop-opacity:1;" />
      <stop
         id="stop2134"
         offset="1"
         style="stop-color:#06f900;stop-opacity:1" />
    </linearGradient>
    <linearGradient
       id="linearGradient2128"
       inkscape:collect="always">
      <stop
         id="stop2124"
         offset="0"
         style="stop-color:#c100a4;stop-opacity:1" />
      <stop
         id="stop2126"
         offset="1"
         style="stop-color:#4f00c0;stop-opacity:0.99607843" />
    </linearGradient>
    <linearGradient
       gradientUnits="userSpaceOnUse"
       y2="121.33189"
       x2="30.437117"
       y1="36.11372"
       x1="28.595375"
       id="linearGradient2130"
       xlink:href="#linearGradient2128"
       inkscape:collect="always" />
    <linearGradient
       gradientUnits="userSpaceOnUse"
       y2="9.5661447"
       x2="60.310828"
       y1="9.5661447"
       x1="1.7772122"
       id="linearGradient2138"
       xlink:href="#linearGradient2136"
       inkscape:collect="always" />
    <linearGradient
       gradientUnits="userSpaceOnUse"
       y2="36.181639"
       x2="61.565632"
       y1="36.181639"
       x1="-0.00014649396"
       id="linearGradient2140"
       xlink:href="#linearGradient2148"
       inkscape:collect="always" />
    <linearGradient
       gradientUnits="userSpaceOnUse"
       y2="95.846138"
       x2="61.564366"
       y1="95.846138"
       x1="-0.00014645793"
       id="linearGradient2142"
       xlink:href="#linearGradient2154"
       inkscape:collect="always" />
  </defs>
  <sodipodi:namedview
     inkscape:window-maximized="0"
     inkscape:window-y="26"
     inkscape:window-x="0"
     showgrid="false"
     inkscape:document-rotation="0"
     inkscape:pageopacity="0.0"
     inkscape:window-height="1174"
     inkscape:cy="43.620537"
     inkscape:cx="79.821704"
     inkscape:current-layer="svg1468"
     borderopacity="1.0"
     inkscape:zoom="4.2244509"
     pagecolor="#ffffff"
     inkscape:window-width="1920"
     inkscape:pageshadow="2"
     bordercolor="#666666"
     id="base" />
  <path
     d="M 16.454365,8.554008 45.396671,8.85111 c 15.026505,0 14.683695,-0.674193 14.683695,13.59813 V 38.069949 C 43.959154,62.352324 47.979173,63.837834 32.953811,63.837834 h -4.343403 c -15.027648,0 -12.117191,-2.605356 -27.1265553,-25.767885 L 1.7740985,21.580788 c 0,-14.272323 -0.3473808,-13.02678 14.6802665,-13.02678 z"
     style="fill:#ffffff;stroke:url(#linearGradient2140);stroke-width:2.968;stroke-linecap:round;stroke-linejoin:round;stroke-miterlimit:4;stroke-dasharray:none;stroke-opacity:1"
     id="rect2675" />
  <path
     d="m 30.485579,126.56064 1.224974,0.0457 c 15.023077,0 28.369813,-5.82778 28.369813,-20.1001 V 90.885543 C 42.290812,64.38633 47.979173,65.117658 32.953811,65.117658 h -4.343403 c -15.027648,0 -8.225155,-1.851174 -27.1265553,25.767885 L 1.7740985,107.3747 c 0,14.27233 13.6826895,19.18594 28.7114805,19.18594 z"
     style="fill:#ffffff;stroke:url(#linearGradient2142);stroke-width:2.968;stroke-linecap:round;stroke-linejoin:round;stroke-miterlimit:4;stroke-dasharray:none;stroke-opacity:1"
     id="path2678" />
  <path
     d="m 25.128601,58.375728 c 0,0 -6.861913,-4.296552 -8.830785,-6.924762 -1.96773,-2.616783 -5.130723,-9.59868 -5.130723,-9.59868 l -2.2236947,-4.91361 c 0,0 12.4120077,-0.102843 14.8185337,1.862601 2.405383,1.976871 6.396835,1.199835 7.928053,0.765609 1.531218,-0.445653 10.279729,-1.976871 15.523579,-2.193984 5.25642,-0.217113 5.473533,0.445653 5.473533,0.445653 0,0 -0.994149,5.724927 -3.839472,8.353137 -2.845323,2.616783 -7.315565,11.107044 -12.783385,12.421149 -5.467819,1.314105 -1.312962,0.868452 -1.312962,0.868452 0,0 -1.530075,0.445653 -1.96773,3.725202 -0.437654,3.279549 -1.093563,7.873203 -1.312962,10.489986 -0.218256,2.62821 -0.874165,20.305779 -0.65591,21.836997 0.219399,1.531218 8.586248,5.644942 10.992774,7.827492 2.405384,2.19399 13.256463,8.45598 10.742523,10.34144 -8.677664,6.49053 -21.079387,5.86205 -21.079387,5.86205 l -12.81081,-1.13127 c 0,0 -21.1788014,-5.46211 -5.112439,-12.34116 5.592373,-2.38825 13.548994,-8.375995 15.517866,-9.46156 1.968872,-1.096992 1.749473,-2.62821 1.749473,-2.62821 0,0 -0.437654,-25.984998 -1.311819,-28.396095 -0.875308,-2.39967 -4.156,-6.559098 -4.374256,-7.210437 z"
     style="fill:url(#linearGradient2130);fill-rule:evenodd;stroke-width:1.1427;fill-opacity:1"
     id="path2680" />
  <path
     d="m 58.826828,9.5661447 a 27.782808,8.0822714 0 1 1 -55.5656156,0 27.782808,8.0822714 0 1 1 55.5656156,0 z"
     style="fill:#ffffff;stroke:url(#linearGradient2138);stroke-width:2.968;stroke-linecap:round;stroke-linejoin:round;stroke-miterlimit:4;stroke-dasharray:none;stroke-opacity:1"
     id="path2682" />
  <metadata
     id="metadata1539">
    <rdf:RDF>
      <cc:Work>
        <dc:format>image/svg+xml</dc:format>
        <dc:type
           rdf:resource="http://purl.org/dc/dcmitype/StillImage" />
        <cc:license
           rdf:resource="http://creativecommons.org/licenses/publicdomain/" />
        <dc:publisher>
          <cc:Agent
             rdf:about="http://openclipart.org/">
            <dc:title>Openclipart</dc:title>
          </cc:Agent>
        </dc:publisher>
        <dc:title>Time icon</dc:title>
        <dc:date>2006-12-26T00:00:00</dc:date>
        <dc:description />
        <dc:source>https://openclipart.org/detail/24868/-by--24868</dc:source>
        <dc:creator>
          <cc:Agent>
            <dc:title>Anonymous</dc:title>
          </cc:Agent>
        </dc:creator>
      </cc:Work>
      <cc:License
         rdf:about="http://creativecommons.org/licenses/publicdomain/">
        <cc:permits
           rdf:resource="http://creativecommons.org/ns#Reproduction" />
        <cc:permits
           rdf:resource="http://creativecommons.org/ns#Distribution" />
        <cc:permits
           rdf:resource="http://creativecommons.org/ns#DerivativeWorks" />
      </cc:License>
    </rdf:RDF>
  </metadata>
</svg>
