<?xml version="1.0" encoding="UTF-8" standalone="no"?>
<svg
   xmlns:dc="http://purl.org/dc/elements/1.1/"
   xmlns:cc="http://creativecommons.org/ns#"
   xmlns:rdf="http://www.w3.org/1999/02/22-rdf-syntax-ns#"
   xmlns:svg="http://www.w3.org/2000/svg"
   xmlns="http://www.w3.org/2000/svg"
   xmlns:sodipodi="http://sodipodi.sourceforge.net/DTD/sodipodi-0.dtd"
   xmlns:inkscape="http://www.inkscape.org/namespaces/inkscape"
   sodipodi:docname="lightShield.svg"
   inkscape:version="1.0 (4035a4f, 2020-05-01)"
   id="svg8"
   version="1.1"
   viewBox="0 0 112.83741 76.872668"
   height="290.54236"
   width="426.47214">
  <defs
     id="defs2" />
  <sodipodi:namedview
     inkscape:window-maximized="0"
     inkscape:window-y="26"
     inkscape:window-x="0"
     inkscape:window-height="1174"
     inkscape:window-width="1920"
     units="px"
     showgrid="false"
     inkscape:document-rotation="0"
     inkscape:current-layer="layer1"
     inkscape:document-units="mm"
     inkscape:cy="44.271183"
     inkscape:cx="-24.263929"
     inkscape:zoom="1"
     inkscape:pageshadow="2"
     inkscape:pageopacity="0.0"
     borderopacity="1.0"
     bordercolor="#666666"
     pagecolor="#ffffff"
     id="base" />
  <metadata
     id="metadata5">
    <rdf:RDF>
      <cc:Work
         rdf:about="">
        <dc:format>image/svg+xml</dc:format>
        <dc:type
           rdf:resource="http://purl.org/dc/dcmitype/StillImage" />
        <dc:title />
      </cc:Work>
    </rdf:RDF>
  </metadata>
  <g
     transform="translate(-11.314623,-29.296999)"
     id="layer1"
     inkscape:groupmode="layer"
     inkscape:label="Layer 1">
    <path
       transform="scale(0.26458333)"
       id="rect833"
       style="fill:#00e100;fill-opacity:1;stroke:none;stroke-width:33.6727;stroke-linejoin:round"
       d="M 256,138.46484 C 221.89216,158.99819 193.75475,189.96953 141.65234,179.04297 141.92169,371.72456 172.74747,327.95633 256,373.53516 339.25254,327.95633 370.07831,371.72456 370.34766,179.04297 318.24524,189.96953 290.10784,158.99819 256,138.46484 Z m 0,31.5 c 25.60684,15.03032 46.73118,37.70132 85.84766,29.70313 C 341.64541,340.70995 318.50275,308.67168 256,342.03516 193.49725,308.67168 170.35455,340.70995 170.15234,199.66797 209.26879,207.66616 230.39317,184.99516 256,169.96484 Z" />
    <path
       sodipodi:nodetypes="csssccsssc"
       d="m 104.79896,32.183853 c 4.74295,4.548952 8.58123,9.965589 11.23376,15.980354 2.65254,6.014765 4.11932,12.627659 4.11932,19.569126 0,6.941468 -1.46678,13.554361 -4.11932,19.569128 -2.65253,6.014764 -6.49081,11.4314 -11.23376,15.980349 m -74.131253,0 C 25.924746,98.733862 22.086477,93.317225 19.433944,87.30246 16.781413,81.287695 15.314623,74.674801 15.314623,67.733333 c 0,-6.941467 1.46679,-13.554361 4.119321,-19.569127 2.652531,-6.014764 6.490802,-11.431401 11.233763,-15.980353"
       style="fill:none;fill-opacity:1;stroke:#2781e7;stroke-width:8;stroke-linejoin:round;stroke-miterlimit:4;stroke-dasharray:none;stroke-opacity:1"
       id="path848" />
    <path
       id="rect833-7"
       style="fill:#ffe100;fill-opacity:0;stroke:none;stroke-width:2.98782;stroke-linejoin:round"
       d="m 67.733332,57.304286 c -3.026432,1.821951 -5.523134,4.570077 -10.146248,3.60055 0.0239,17.096887 2.759143,13.213275 10.146248,17.257545 7.387111,-4.044269 10.12235,-0.160657 10.14625,-17.257545 -4.623115,0.969528 -7.119817,-1.778599 -10.14625,-3.60055 z" />
  </g>
</svg>
