<?xml version="1.0" encoding="UTF-8" standalone="no"?>
<svg
   xmlns:dc="http://purl.org/dc/elements/1.1/"
   xmlns:cc="http://creativecommons.org/ns#"
   xmlns:rdf="http://www.w3.org/1999/02/22-rdf-syntax-ns#"
   xmlns:svg="http://www.w3.org/2000/svg"
   xmlns="http://www.w3.org/2000/svg"
   xmlns:xlink="http://www.w3.org/1999/xlink"
   xmlns:sodipodi="http://sodipodi.sourceforge.net/DTD/sodipodi-0.dtd"
   xmlns:inkscape="http://www.inkscape.org/namespaces/inkscape"
   inkscape:version="1.0 (4035a4f, 2020-05-01)"
   version="1.1"
   viewBox="0 0 160 156"
   sodipodi:docname="1420410486.svg"
   id="svg2">
  <defs
     id="defs56">
    <linearGradient
       id="linearGradient2851"
       inkscape:collect="always">
      <stop
         id="stop2847"
         offset="0"
         style="stop-color:#00e500;stop-opacity:1" />
      <stop
         id="stop2849"
         offset="1"
         style="stop-color:#00aa00;stop-opacity:0.94331986" />
    </linearGradient>
    <radialGradient
       gradientUnits="userSpaceOnUse"
       gradientTransform="matrix(1,0,0,0.975,0,1.95)"
       r="80"
       fy="78"
       fx="80"
       cy="78"
       cx="80"
       id="radialGradient2855"
       xlink:href="#linearGradient2851"
       inkscape:collect="always" />
  </defs>
  <sodipodi:namedview
     inkscape:document-rotation="0"
     inkscape:window-height="1155"
     inkscape:pageopacity="0"
     showgrid="false"
     inkscape:window-width="1920"
     inkscape:window-x="0"
     inkscape:window-y="23"
     inkscape:cy="127.55657"
     inkscape:cx="134.98578"
     inkscape:current-layer="svg2"
     borderopacity="1"
     objecttolerance="10"
     inkscape:zoom="3.1605397"
     inkscape:window-maximized="0"
     gridtolerance="10"
     pagecolor="#ffffff"
     guidetolerance="10"
     inkscape:pageshadow="2"
     bordercolor="#666666"
     id="namedview8" />
  <path
     style="fill:url(#radialGradient2855);fill-opacity:1"
     d="m20 0-2 4 21 12c0 10-4 18-13 23l-21-12-1 2c5 15 15 25 35 25 5 0 20 15 28 23l16-16c-8-8-26-26-26-31 0-18-5-30-37-30zm125 5-20 14-2 8-58 58-8-5-4 4c0 12-14 18-20 18l-33 33c0 10 11 21 21 21l33-33c0-6 6-20 18-20l4-4-5-8 58-58 8-2 14-20-6-6zm-50 68-16 16c12 12 28 28 28 33 0 18 5 30 37 30l2-4-21-12c0-10 4-18 13-23l21 12 1-2c-5-15-15-25-35-25-5 0-18-13-30-25z"
     inkscape:connector-curvature="0"
     id="path4" />
  <metadata
     id="metadata6">
    <rdf:RDF>
      <cc:Work>
        <dc:format>image/svg+xml</dc:format>
        <dc:type
           rdf:resource="http://purl.org/dc/dcmitype/StillImage" />
        <cc:license
           rdf:resource="http://creativecommons.org/licenses/publicdomain/" />
        <dc:publisher>
          <cc:Agent
             rdf:about="http://openclipart.org/">
            <dc:title>Openclipart</dc:title>
          </cc:Agent>
        </dc:publisher>
      </cc:Work>
      <cc:License
         rdf:about="http://creativecommons.org/licenses/publicdomain/">
        <cc:permits
           rdf:resource="http://creativecommons.org/ns#Reproduction" />
        <cc:permits
           rdf:resource="http://creativecommons.org/ns#Distribution" />
        <cc:permits
           rdf:resource="http://creativecommons.org/ns#DerivativeWorks" />
      </cc:License>
    </rdf:RDF>
  </metadata>
</svg>
